<svg width="140" height="40" viewBox="0 0 140 40" fill="none" xmlns="http://www.w3.org/2000/svg">
	<path d="M65.1316 26.8244C65.1316 29.3352 64.0239 29.9998 61.1439 29.9998H51.1746C50.7316 29.9998 50.2885 29.5567 50.2885 29.1136V27.489C50.2885 27.046 50.7316 26.6029 51.1746 26.6029H60.0362C61.1439 26.6029 61.2916 26.529 61.2916 25.7167V24.5352C61.2916 23.7229 61.1439 23.649 60.0362 23.649H53.39C50.51 23.649 49.4023 22.9844 49.4023 20.4736V16.7813C49.4023 14.2706 50.51 13.606 53.39 13.606H63.2854C63.7285 13.606 64.1716 14.049 64.1716 14.4921V16.1167C64.1716 16.5598 63.7285 17.0029 63.2854 17.0029H54.4977C53.39 17.0029 53.2424 17.0767 53.2424 17.889V19.2183C53.2424 19.9567 53.39 20.1044 54.1285 20.1044H61.1439C64.0239 20.1044 65.1316 20.769 65.1316 23.2798V26.8244Z" fill="white" />
	<path d="M77.5379 29.1137C77.5379 29.5568 77.0948 29.9999 76.6517 29.9999H73.6979C70.8179 29.9999 69.7102 29.3353 69.7102 26.8245V16.9291H67.3471C66.904 16.9291 66.4609 16.486 66.4609 16.043V14.4183C66.4609 13.9753 66.904 13.5322 67.3471 13.5322H69.8579V9.76604C69.8579 9.32296 70.3009 8.87988 70.744 8.87988H72.664C73.1071 8.87988 73.4025 9.32296 73.4025 9.76604V13.5322H76.6517C77.0948 13.5322 77.5379 13.9753 77.5379 14.4183V16.043C77.5379 16.486 77.0948 16.9291 76.6517 16.9291H73.5502V25.4953C73.5502 26.3076 73.6979 26.3814 74.8055 26.3814H76.6517C77.0948 26.3814 77.5379 26.8245 77.5379 27.2676V29.1137Z" fill="white" />
	<path d="M96.9587 26.8245C96.9587 29.3353 95.8511 29.9999 92.9711 29.9999H84.2572C81.3772 29.9999 80.2695 29.3353 80.2695 26.8245V16.7076C80.2695 14.1968 81.3772 13.5322 84.2572 13.5322H92.9711C95.8511 13.5322 96.9587 14.1968 96.9587 16.7076V26.8245ZM91.9372 26.5291C93.0449 26.5291 93.1926 26.4553 93.1926 25.643V17.8153C93.1926 17.003 93.0449 16.9291 91.9372 16.9291H85.4388C84.3311 16.9291 84.1834 17.003 84.1834 17.8153V25.643C84.1834 26.4553 84.3311 26.5291 85.4388 26.5291H91.9372Z" fill="white" />
	<path d="M104.047 29.1138C104.047 29.5568 103.604 29.9999 103.161 29.9999H101.093C100.65 29.9999 100.207 29.5568 100.207 29.1138V16.7076C100.207 14.1968 101.315 13.5322 104.195 13.5322H111.358C111.801 13.5322 112.244 13.9753 112.244 14.4184V16.043C112.244 16.4861 111.801 16.9291 111.358 16.9291H105.302C104.195 16.9291 104.047 17.003 104.047 17.8153V29.1138Z" fill="white" />
	<path d="M129.822 29.1138C129.822 29.5568 129.379 29.9999 128.936 29.9999H117.933C115.053 29.9999 113.945 29.3353 113.945 26.8245V16.7076C113.945 14.1968 115.053 13.5322 117.933 13.5322H126.647C129.527 13.5322 130.635 14.1968 130.635 16.7076V20.4738C130.635 22.9845 129.527 23.6491 126.647 23.6491H117.785V25.7168C117.785 26.5291 118.007 26.603 119.558 26.603H128.862C129.305 26.603 129.748 27.0461 129.748 27.4892V29.1138H129.822ZM125.539 20.1784C126.647 20.1784 126.795 20.1045 126.795 19.2922V17.8892C126.795 17.0768 126.647 17.003 125.539 17.003H119.041C117.933 17.003 117.785 17.0768 117.785 17.8892V20.1784H125.539Z" fill="white" />
	<path d="M18.9789 13.5322H11.8158C8.93581 13.5322 7.82812 14.1968 7.82812 16.7076V29.1138C7.82812 29.5568 8.27119 29.9999 8.71427 29.9999H10.782C11.225 29.9999 11.6681 29.5568 11.6681 29.1138V17.8892C11.6681 17.0768 11.8158 17.003 12.9235 17.003H18.9789C19.4958 17.003 19.865 16.5599 19.865 16.1168V14.4922C19.9389 13.9015 19.4958 13.5322 18.9789 13.5322Z" fill="white" />
	<path d="M34.7797 13.5322H25.9181V6.95988C25.9181 6.51681 25.475 6.07373 25.032 6.07373H22.9643C22.4474 6.07373 22.0781 6.51681 22.0781 6.95988V29.1137C22.0781 29.5568 22.5212 29.9999 22.9643 29.9999H25.032C25.475 29.9999 25.9181 29.5568 25.9181 29.1137V17.003H33.672C34.7797 17.003 34.9274 17.0768 34.9274 17.8891V29.1137C34.9274 29.5568 35.3704 29.9999 35.8135 29.9999H37.8074C38.3243 29.9999 38.6935 29.5568 38.6935 29.1137V16.7076C38.7674 14.123 37.6597 13.5322 34.7797 13.5322Z" fill="white" />
	<path d="M5.90769 6H0.812312C0.369235 6 0 6.36924 0 6.81231V11.9077C0 12.3508 0.369235 12.72 0.812312 12.72H5.90769C6.35077 12.72 6.72 12.3508 6.72 11.9077V6.81231C6.72 6.36924 6.35077 6 5.90769 6Z" fill="white" />
</svg>
