<svg width="32" height="32" viewBox="0 0 32 32" fill="none" xmlns="http://www.w3.org/2000/svg">
	<g clip-path="url(#clip0_4316_128968)">
		<rect width="32" height="32" fill="#0077FF" />
		<path d="M16.7862 21.5999C10.773 21.5999 7.34311 17.3957 7.2002 10.3999H10.2123C10.3113 15.5346 12.5319 17.7096 14.2908 18.1581V10.3999H17.127V14.8283C18.8639 14.6377 20.6888 12.6197 21.3044 10.3999H24.1406C23.9086 11.5512 23.4462 12.6412 22.7823 13.6019C22.1183 14.5626 21.2672 15.3732 20.282 15.9831C21.3817 16.5403 22.353 17.3291 23.1318 18.2973C23.9106 19.2655 24.4793 20.3911 24.8002 21.5999H21.6781C21.39 20.55 20.8045 19.6101 19.9949 18.8982C19.1853 18.1862 18.1877 17.7337 17.127 17.5975V21.5999H16.7862Z" fill="white" />
	</g>
	<defs>
		<clipPath id="clip0_4316_128968">
			<rect width="32" height="32" rx="8" fill="white" />
		</clipPath>
	</defs>
</svg>
