<svg width="32" height="32" viewBox="0 0 32 32" fill="none" xmlns="http://www.w3.org/2000/svg">
	<g clip-path="url(#clip0_4316_128969)">
		<path d="M32 0H0V32H32V0Z" fill="#FC3F1D" />
		<path fill-rule="evenodd" clip-rule="evenodd" d="M13.5136 7.66668C11.1943 8.50806 10.0869 10.1423 10.0869 12.7235C10.0869 14.6433 10.5852 15.7436 12.0966 17.1628C12.7425 17.7692 13.2709 18.3262 13.2709 18.4007C13.2709 18.4751 12.4448 19.7654 11.4352 21.268L9.59961 24.0002H11.172H12.7441L14.4506 21.4112C15.3892 19.9873 16.3326 18.5503 16.5468 18.218L16.9362 17.6141L15.845 16.9076C13.6444 15.4831 12.8146 14.2378 12.8146 12.3599C12.8146 10.4866 14.5772 9.27143 17.2944 9.27143H17.8337V16.6358V24.0002H19.3167H20.7996V15.6002V7.2002L17.7767 7.20848C15.3673 7.21515 14.5022 7.30813 13.5136 7.66668Z" fill="white" />
	</g>
	<defs>
		<clipPath id="clip0_4316_128969">
			<rect width="32" height="32" rx="8" fill="white" />
		</clipPath>
	</defs>
</svg>
